<?xml version="1.0" encoding="UTF-8"?>
<svg id="Layer_1" data-name="Layer 1" xmlns="http://www.w3.org/2000/svg" viewBox="0 0 353.06 303.43">
  <path d="m353.06,204.76c-.52,1.9-.97,3.82-1.56,5.7-3.85,12.14-14.77,20.77-27.49,21.72-1.99.15-3.98.2-5.98.21-49.08.01-98.17.03-147.25-.05-2.9,0-4.9.88-6.92,2.92-19.67,19.81-39.38,39.59-59.21,59.24-14.04,13.91-35.89,11.2-45.8-5.49-2.97-5-4.15-10.44-4.15-16.2,0-12.3,0-24.59,0-36.89,0-1.19,0-2.38,0-3.92-7.28,0-14.23,0-21.18,0-15.32,0-27.14-7.75-31.63-21.11-1.14-3.4-1.79-7.14-1.79-10.72C-.02,144.11-.01,88.05.03,31.99.04,16.03,10.3,3.79,26.11.55c.41-.08.77-.36,1.16-.55,99.73,0,199.46,0,299.19,0,.39.18.76.45,1.16.54,13.48,2.76,21.89,10.72,24.88,24.24.09.4.36.77.55,1.15,0,59.61,0,119.22,0,178.84ZM176.95,22.44c-47.86,0-95.71,0-143.57,0-7.51,0-10.97,3.13-10.98,10.14-.03,55.6-.03,111.21,0,166.81,0,6.82,3.42,10.16,10.25,10.18,10.52.03,21.05,0,31.57.02,8.98.02,13.19,4.25,13.21,13.27.02,16.06,0,32.12.02,48.18,0,1.44-.02,2.9.22,4.3.84,4.94,6.44,7.18,10.5,4.22.98-.71,1.8-1.63,2.66-2.49,20.68-20.67,41.44-41.27,61.97-62.1,3.82-3.88,7.89-5.46,13.23-5.45,51.29.11,102.58.06,153.87.06,8.42,0,11.43-2.98,11.43-11.34,0-28.36,0-56.71,0-85.07,0-26.58,0-53.17,0-79.75,0-7.78-3.15-10.93-10.82-10.98-.89,0-1.77,0-2.66,0-46.97,0-93.94,0-140.91,0Z"/>
  <circle cx="90.24" cy="111.39" r="23.93"/>
  <circle cx="176.65" cy="111.39" r="23.93"/>
  <circle cx="263.73" cy="111.39" r="23.93"/>
</svg>