<svg id="Group_141" data-name="Group 141" xmlns="http://www.w3.org/2000/svg" xmlns:xlink="http://www.w3.org/1999/xlink" width="31.824" height="36.631" viewBox="0 0 31.824 36.631">
  <defs>
    <clipPath id="clip-path">
      <rect id="Rectangle_1199" data-name="Rectangle 1199" width="31.824" height="36.631" fill="#ff6384"/>
    </clipPath>
  </defs>
  <g id="Group_140" data-name="Group 140" clip-path="url(#clip-path)">
    <path id="Path_33" data-name="Path 33" d="M2.5,35.127V6.133a1.412,1.412,0,0,0,.051-.23,3.761,3.761,0,0,1,3.9-3.4c5.038.043,10.076.014,15.114.014q4.313,0,8.627,0A3.687,3.687,0,0,1,33.88,5.528c.041.2.066.4.1.6V34.989c-.02.135-.047.269-.059.4a3.747,3.747,0,0,1-2.658,3.226c-.263.074-.536.112-.8.166h-.276a5.5,5.5,0,0,1-2.761-1.3q-4.2-3.012-8.426-6a1.107,1.107,0,0,0-1.512,0c-2.809,2-5.624,3.987-8.426,5.995a5.518,5.518,0,0,1-2.761,1.3H6.021a1.432,1.432,0,0,0-.2-.053,3.7,3.7,0,0,1-3.218-3c-.042-.2-.071-.4-.106-.606M4.951,20.6q0,7.11,0,14.22c0,.1,0,.207.008.31a1.217,1.217,0,0,0,1.964.92C9.931,33.87,12.972,31.738,16,29.585a3.5,3.5,0,0,1,4.461-.017q4.57,3.246,9.138,6.495a1.154,1.154,0,0,0,1.849-.606,1.848,1.848,0,0,0,.078-.576q.006-14.272,0-28.544a1.288,1.288,0,0,0-1.42-1.406q-11.873,0-23.746,0A1.289,1.289,0,0,0,4.95,6.344q0,7.127,0,14.255" transform="translate(-2.327 -2.327)" fill="#ff6384"/>
    <path id="Path_34" data-name="Path 34" d="M28.148,36.631h-.307a5.546,5.546,0,0,1-2.794-1.292l-.054-.039c-2.209-1.583-4.464-3.183-6.643-4.73l-1.782-1.265a.945.945,0,0,0-1.312,0l-2.462,1.749c-1.957,1.389-3.98,2.825-5.963,4.246l-.047.034a5.582,5.582,0,0,1-2.8,1.3H3.67l-.023-.006L3.578,36.6a.634.634,0,0,0-.1-.028A3.874,3.874,0,0,1,.109,33.441C.08,33.3.057,33.158.034,33.02q-.016-.1-.032-.191L0,32.8V3.786l0-.019c.006-.027.014-.054.021-.081a.619.619,0,0,0,.026-.121A3.917,3.917,0,0,1,4.088,0H4.13C7.706.031,11.343.025,14.86.019Q18.318.013,21.776.013c2,0,4.062,0,6.093,0a3.856,3.856,0,0,1,3.852,3.152c.029.141.05.283.071.421.01.064.019.127.029.191l0,.028V32.674l0,.013c-.006.044-.014.088-.021.131-.015.091-.029.177-.037.264a3.934,3.934,0,0,1-2.783,3.376c-.187.053-.379.088-.564.122-.084.015-.168.031-.252.048Zm-.287-.345h.252c.08-.016.161-.031.242-.045.186-.034.361-.066.533-.114a3.582,3.582,0,0,0,2.533-3.075c.009-.1.025-.2.04-.288.006-.038.012-.076.018-.114V3.82c-.01-.06-.019-.121-.028-.181-.02-.133-.041-.271-.068-.4A3.518,3.518,0,0,0,27.869.36c-2.031,0-4.1,0-6.093,0q-3.458,0-6.915.006C11.343.37,7.7.376,4.127.345H4.088A3.573,3.573,0,0,0,.4,3.585a.9.9,0,0,1-.038.194c0,.016-.009.032-.013.047V32.785c.01.06.02.12.03.18.022.134.044.272.072.405a3.537,3.537,0,0,0,3.071,2.864.915.915,0,0,1,.165.041l.034.011h.245a5.255,5.255,0,0,0,2.62-1.233l.047-.034c1.984-1.422,4.007-2.858,5.964-4.247l2.462-1.748a1.28,1.28,0,0,1,1.712,0l1.782,1.265c2.18,1.547,4.435,3.147,6.645,4.731l.054.039a5.218,5.218,0,0,0,2.613,1.228m.166-2.121a1.486,1.486,0,0,1-.857-.288l-4.718-3.353-4.42-3.142a3.316,3.316,0,0,0-4.261.017q-1.422,1.011-2.846,2.019C8.878,30.867,6.762,32.365,4.7,33.862a1.367,1.367,0,0,1-1.418.17,1.46,1.46,0,0,1-.82-1.22c-.006-.1-.008-.2-.008-.32q0-6.221,0-12.443V18.272q0-6.109,0-12.218V4.017A1.457,1.457,0,0,1,4.034,2.43q11.873,0,23.746,0a1.457,1.457,0,0,1,1.593,1.579c0,11.424,0,20.227,0,28.544a1.989,1.989,0,0,1-.087.631,1.4,1.4,0,0,1-.871.92,1.239,1.239,0,0,1-.385.061M15.918,26.272a3.977,3.977,0,0,1,2.314.828l4.421,3.142,4.718,3.353a.982.982,0,0,0,1.585-.52,1.655,1.655,0,0,0,.07-.522c0-8.317,0-17.12,0-28.544a1.119,1.119,0,0,0-1.247-1.233q-11.873,0-23.746,0A1.119,1.119,0,0,0,2.8,4.017V6.053q0,6.109,0,12.218v1.778q0,6.221,0,12.443c0,.112,0,.21.008.3a1.11,1.11,0,0,0,.623.928,1.019,1.019,0,0,0,1.067-.138c2.066-1.5,4.184-3,6.231-4.447q1.424-1.008,2.846-2.019a4.035,4.035,0,0,1,2.347-.844" fill="#ff6384"/>
    <path id="Path_35" data-name="Path 35" d="M116.555,107.689h-7c-.126,0-.254,0-.379.01a1.2,1.2,0,0,0-.252,2.334,2.191,2.191,0,0,0,.613.069q7.022.005,14.044,0a2.712,2.712,0,0,0,.447-.033,1.175,1.175,0,0,0,.955-.964,1.2,1.2,0,0,0-1.28-1.416q-3.571-.006-7.143,0" transform="translate(-100.634 -100.254)" fill="#ff6384"/>
    <path id="Path_36" data-name="Path 36" d="M114.9,107.948c-2.482,0-5.082,0-7.7,0a2.383,2.383,0,0,1-.662-.076,1.373,1.373,0,0,1,.284-2.671c.115-.011.229-.011.339-.01h9.168c1.651,0,3.357,0,5.036,0a1.491,1.491,0,0,1,1.163.495,1.382,1.382,0,0,1-.81,2.228,2.879,2.879,0,0,1-.475.035H114.9m-7.794-2.415c-.085,0-.167,0-.247.009a1,1,0,0,0-.911.9,1.009,1.009,0,0,0,.692,1.1,2.065,2.065,0,0,0,.564.062c4.971,0,9.889,0,14.043,0a2.541,2.541,0,0,0,.418-.03,1,1,0,0,0,.813-.821,1.023,1.023,0,0,0-.209-.843,1.153,1.153,0,0,0-.9-.373c-1.679,0-3.385,0-5.035,0h-9.227" transform="translate(-98.307 -97.925)" fill="#ff6384"/>
    <path id="Path_37" data-name="Path 37" d="M116.555,107.689q3.571,0,7.143,0a1.2,1.2,0,0,1,1.28,1.416,1.175,1.175,0,0,1-.955.964,2.726,2.726,0,0,1-.447.033q-7.022,0-14.044,0a2.193,2.193,0,0,1-.613-.069,1.2,1.2,0,0,1,.252-2.334c.126-.012.253-.01.379-.01h7" transform="translate(-100.634 -100.254)" fill="#ff6384"/>
    <path id="Path_38" data-name="Path 38" d="M114.9,107.95c-2.482,0-5.082,0-7.7,0a2.383,2.383,0,0,1-.662-.076,1.373,1.373,0,0,1,.284-2.671c.115-.011.229-.011.339-.01h9.095c1.675,0,3.406,0,5.11,0a1.491,1.491,0,0,1,1.163.495,1.382,1.382,0,0,1-.81,2.228,2.879,2.879,0,0,1-.475.035H114.9m-7.794-2.415c-.085,0-.167,0-.247.009a1,1,0,0,0-.911.9,1.009,1.009,0,0,0,.692,1.1,2.065,2.065,0,0,0,.564.062c4.971,0,9.889,0,14.043,0a2.541,2.541,0,0,0,.418-.03,1,1,0,0,0,.813-.821,1.023,1.023,0,0,0-.209-.843,1.153,1.153,0,0,0-.9-.373c-1.7,0-3.434,0-5.109,0h-9.153" transform="translate(-98.307 -97.927)" fill="#ff6384"/>
  </g>
</svg>
