<svg id="Group_143" data-name="Group 143" xmlns="http://www.w3.org/2000/svg" xmlns:xlink="http://www.w3.org/1999/xlink" width="42.089" height="43.62" viewBox="0 0 42.089 43.62">
  <defs>
    <clipPath id="clip-path">
      <rect id="Rectangle_1201" data-name="Rectangle 1201" width="42.089" height="43.62" fill="#ff9566"/>
    </clipPath>
  </defs>
  <g id="Group_142" data-name="Group 142" clip-path="url(#clip-path)">
    <path id="Path_39" data-name="Path 39" d="M10.645,0a5.476,5.476,0,0,1-.309.616q-5,7.5-9.99,15.007a1.942,1.942,0,0,0-.331,1Q-.013,29.8,0,42.97v.638H.683q11.715,0,23.43.012a.794.794,0,0,0,.892-.588c2.082-5.26,4.2-10.5,6.287-15.764a9.229,9.229,0,0,0-8.668-12.732c-1.037,0-2.073,0-3.171,0,.207-1.1.491-2.14.582-3.2a29.266,29.266,0,0,0,.2-5.1,7.047,7.047,0,0,0-5.72-6.1C14.346.1,14.184.045,14.02,0ZM4.421,39.239a2.924,2.924,0,0,1-.045-.305q0-10.572,0-21.144a1.379,1.379,0,0,1,.237-.712c2.724-4.1,5.465-8.2,8.183-12.306a.734.734,0,0,1,.86-.358,2.83,2.83,0,0,1,2.3,2.69,16.92,16.92,0,0,1-.215,3.292c-.53,2.643-1.183,5.262-1.784,7.892-.041.181-.064.366-.107.618h.78c2.638,0,5.276-.007,7.915,0A4.858,4.858,0,0,1,27.2,25.774c-1.7,4.27-3.425,8.532-5.109,12.809a.883.883,0,0,1-.981.669c-5.32-.021-10.639-.013-15.959-.013Z" transform="translate(10.11 0.001)" fill="#ff9566"/>
    <rect id="Rectangle_1200" data-name="Rectangle 1200" width="4.229" height="27.559" transform="translate(0 16.027)" fill="#ff9566"/>
  </g>
</svg>
