<svg id="Group_137" data-name="Group 137" xmlns="http://www.w3.org/2000/svg" xmlns:xlink="http://www.w3.org/1999/xlink" width="50.116" height="43.068" viewBox="0 0 50.116 43.068">
  <defs>
    <clipPath id="clip-path">
      <rect id="Rectangle_1197" data-name="Rectangle 1197" width="50.116" height="43.068" fill="#4bc0c0"/>
    </clipPath>
  </defs>
  <g id="Group_137-2" data-name="Group 137" clip-path="url(#clip-path)">
    <path id="Path_25" data-name="Path 25" d="M50.116,29.064c-.073.27-.137.542-.222.809a4.446,4.446,0,0,1-3.9,3.083c-.282.021-.565.029-.848.029q-10.451,0-20.9-.007a1.26,1.26,0,0,0-.983.415q-4.189,4.218-8.405,8.408a4.083,4.083,0,0,1-6.5-.779,4.4,4.4,0,0,1-.589-2.3q0-2.618,0-5.236v-.556H4.756a4.448,4.448,0,0,1-4.489-3,4.893,4.893,0,0,1-.255-1.522Q-.011,16.476,0,4.541A4.434,4.434,0,0,1,3.706.077.768.768,0,0,0,3.87,0h42.47a.781.781,0,0,0,.165.076,4.2,4.2,0,0,1,3.531,3.441.781.781,0,0,0,.079.163V29.064m-25-25.879q-10.19,0-20.38,0c-1.066,0-1.558.444-1.558,1.439q-.006,11.839,0,23.677a1.282,1.282,0,0,0,1.455,1.445c1.494,0,2.988,0,4.482,0a1.643,1.643,0,0,1,1.875,1.883q0,3.42,0,6.839a3.68,3.68,0,0,0,.031.611.938.938,0,0,0,1.491.6,3.36,3.36,0,0,0,.378-.354c2.936-2.934,5.883-5.858,8.8-8.814a2.431,2.431,0,0,1,1.877-.774q10.921.023,21.842.009c1.195,0,1.623-.424,1.623-1.61q0-6.037,0-12.075,0-5.66,0-11.32c0-1.1-.447-1.552-1.535-1.558H25.118" transform="translate(0.001)" fill="#4bc0c0"/>
    <path id="Path_26" data-name="Path 26" d="M99.758,134.956a3.4,3.4,0,1,1,3.4,3.4,3.4,3.4,0,0,1-3.4-3.4" transform="translate(-90.345 -119.146)" fill="#4bc0c0"/>
    <path id="Path_27" data-name="Path 27" d="M229.758,134.956a3.4,3.4,0,1,1,3.4,3.4,3.4,3.4,0,0,1-3.4-3.4" transform="translate(-208.079 -119.146)" fill="#4bc0c0"/>
    <path id="Path_28" data-name="Path 28" d="M360.759,134.956a3.4,3.4,0,1,1,3.4,3.4,3.4,3.4,0,0,1-3.4-3.4" transform="translate(-326.72 -119.146)" fill="#4bc0c0"/>
  </g>
</svg>
