<svg id="Group_139" data-name="Group 139" xmlns="http://www.w3.org/2000/svg" xmlns:xlink="http://www.w3.org/1999/xlink" width="38.149" height="38.132" viewBox="0 0 38.149 38.132">
  <defs>
    <clipPath id="clip-path">
      <rect id="Rectangle_1198" data-name="Rectangle 1198" width="38.149" height="38.132" fill="#ffce56"/>
    </clipPath>
  </defs>
  <g id="Group_138" data-name="Group 138" clip-path="url(#clip-path)">
    <path id="Path_29" data-name="Path 29" d="M253.945,19.5a1.368,1.368,0,0,1-1.471.886c-4.347-.02-8.694-.01-13.041-.01-1.129,0-1.429-.3-1.429-1.442q0-6.544,0-13.089c0-1.118.429-1.478,1.536-1.288A16.973,16.973,0,0,1,252.133,13.6a15.88,15.88,0,0,1,1.726,5.225c.021.134.057.265.085.4Zm-2.307-1.2a14.85,14.85,0,0,0-11.5-11.513V18.294Z" transform="translate(-216.208 -4.095)" fill="#ffce56"/>
    <path id="Path_30" data-name="Path 30" d="M248.4,16.7h-.016c-3.214-.014-6.483-.013-9.644-.011h-3.4c-1.359,0-1.841-.485-1.841-1.854q0-6.545,0-13.089A1.844,1.844,0,0,1,234,.3a1.855,1.855,0,0,1,1.52-.246,17.431,17.431,0,0,1,12.886,9.254,16.356,16.356,0,0,1,1.772,5.36c.012.076.031.156.051.241.01.044.021.088.03.132l.009.043v.4l-.028.072A1.767,1.767,0,0,1,248.4,16.7m-6.551-.836c2.171,0,4.367,0,6.539.012.582.006.875-.149,1.057-.556v-.147l-.018-.077c-.023-.1-.046-.2-.063-.3A15.535,15.535,0,0,0,247.684,9.7,17.483,17.483,0,0,0,242.6,3.8,17.2,17.2,0,0,0,235.382.867a1.129,1.129,0,0,0-.849.063c-.136.115-.2.39-.2.818q0,6.544,0,13.089c0,.947.167,1.029,1.017,1.03h6.5m6.193-1.254h-12.4V2.194l.484.086a15.27,15.27,0,0,1,11.834,11.847Zm-11.579-.824h10.586a14.5,14.5,0,0,0-10.586-10.6Z" transform="translate(-212.12 0.001)" fill="#ffce56"/>
    <path id="Path_31" data-name="Path 31" d="M22.852,52.658H37.465c1.064,0,1.413.378,1.376,1.454a16.9,16.9,0,0,1-7.416,13.861A17.16,17.16,0,0,1,8.8,65.228,16.975,16.975,0,0,1,4.565,52.2,17.172,17.172,0,0,1,18.886,36.9c.872-.133,1.759-.182,2.641-.229.923-.05,1.324.353,1.324,1.274q0,7.052,0,14.1v.61M20.791,38.794a15.1,15.1,0,1,0,2.922,30.041,14.768,14.768,0,0,0,10.231-6.2,14.654,14.654,0,0,0,2.787-7.918H22.241c-1.134,0-1.449-.31-1.449-1.431q0-6.96,0-13.92Z" transform="translate(-4.082 -33.309)" fill="#ffce56"/>
    <path id="Path_32" data-name="Path 32" d="M17.652,67.352a18.034,18.034,0,0,1-2.186-.134A17.586,17.586,0,0,1,14.741,32.4c.9-.137,1.806-.186,2.681-.233a1.677,1.677,0,0,1,1.306.378,1.707,1.707,0,0,1,.452,1.307q0,5.094,0,10.187v4.115h14.2a1.9,1.9,0,0,1,1.39.442,1.852,1.852,0,0,1,.4,1.439,17.339,17.339,0,0,1-7.589,14.182,17.082,17.082,0,0,1-9.93,3.131m-.06-34.362c-.04,0-.082,0-.125,0-.855.046-1.74.094-2.6.225a16.763,16.763,0,0,0,.7,33.182A16.778,16.778,0,0,0,34.346,50.01a1.2,1.2,0,0,0-.166-.838,1.147,1.147,0,0,0-.8-.19H18.357v-4.94q0-5.093,0-10.187a.98.98,0,0,0-.195-.709.824.824,0,0,0-.57-.157m-.041,32.316A15.547,15.547,0,0,1,5.971,39.432a15.35,15.35,0,0,1,10.721-5.139l.429-.017v4.482q0,5.22,0,10.44c0,.895.126,1.019,1.037,1.019H33.086l-.025.436A15.145,15.145,0,0,1,30.2,58.789a15.191,15.191,0,0,1-10.507,6.365,15.14,15.14,0,0,1-2.138.152M16.3,35.141A14.638,14.638,0,0,0,2.911,50.847,14.709,14.709,0,0,0,17.55,64.482a14.763,14.763,0,0,0,11.978-6.176,14.285,14.285,0,0,0,2.678-7.265H18.158c-1.357,0-1.861-.5-1.861-1.843q0-5.22,0-10.44Z" transform="translate(0.001 -29.22)" fill="#ffce56"/>
  </g>
</svg>
