<svg xmlns="http://www.w3.org/2000/svg" xmlns:xlink="http://www.w3.org/1999/xlink" width="50" height="45.072" viewBox="0 0 50 45.072">
  <defs>
    <clipPath id="clip-path">
      <rect id="Rectangle_1196" data-name="Rectangle 1196" width="50" height="45.072" fill="#96f"/>
    </clipPath>
  </defs>
  <g id="Group_136" data-name="Group 136" clip-path="url(#clip-path)">
    <path id="Path_22" data-name="Path 22" d="M50,30.416c-.073.282-.137.568-.221.846a4.483,4.483,0,0,1-3.893,3.226c-.281.022-.564.03-.846.031q-10.427,0-20.854-.008a1.23,1.23,0,0,0-.981.434q-4.179,4.414-8.386,8.8a3.968,3.968,0,0,1-6.487-.816,4.778,4.778,0,0,1-.587-2.406q0-2.74,0-5.48v-.582h-3A4.447,4.447,0,0,1,.266,31.325a5.349,5.349,0,0,1-.254-1.592Q-.011,17.243,0,4.752A4.588,4.588,0,0,1,3.7.081.751.751,0,0,0,3.861,0H46.233A.763.763,0,0,0,46.4.08a4.29,4.29,0,0,1,3.523,3.6A.835.835,0,0,0,50,3.851V30.416M25.06,3.333q-10.166,0-20.332,0c-1.064,0-1.554.464-1.555,1.506q-.006,12.389,0,24.779c0,1.013.485,1.509,1.452,1.512,1.49.005,2.981,0,4.471,0,1.272,0,1.869.631,1.87,1.971q0,3.579,0,7.157A4.038,4.038,0,0,0,11,40.9a.926.926,0,0,0,1.487.627,3.423,3.423,0,0,0,.377-.371c2.929-3.071,5.869-6.131,8.776-9.224a2.37,2.37,0,0,1,1.873-.81q10.9.024,21.791.009c1.192,0,1.619-.443,1.619-1.685q0-6.318,0-12.636,0-5.923,0-11.847c0-1.155-.446-1.624-1.532-1.631H25.06" transform="translate(0.001)" fill="#96f"/>
    <path id="Path_23" data-name="Path 23" d="M170.146,128.658c-.3-.036-.552-.061-.805-.1a3.149,3.149,0,0,1-2.6-2.768,3.991,3.991,0,0,1,2.8-4.624,3.763,3.763,0,0,1,4.495,2.723,8.091,8.091,0,0,1,.052,3.9,15.456,15.456,0,0,1-3.549,7.087.5.5,0,0,1-.828.019c-.469-.5-.927-1.008-1.379-1.524-.252-.288-.24-.5.034-.845a8.554,8.554,0,0,0,1.7-3.394c.034-.142.054-.288.089-.478" transform="translate(-150.969 -109.093)" fill="#96f"/>
    <path id="Path_24" data-name="Path 24" d="M286.68,128.668c-.3-.038-.551-.067-.8-.1a3.248,3.248,0,0,1-2.591-2.87,4.029,4.029,0,0,1,2.885-4.539,3.792,3.792,0,0,1,4.43,2.741,7.59,7.59,0,0,1,.031,3.75,15.677,15.677,0,0,1-3.54,7.214.518.518,0,0,1-.876.022q-.688-.737-1.354-1.5c-.253-.287-.241-.5.031-.843a8.527,8.527,0,0,0,1.711-3.465c.027-.118.045-.239.077-.409" transform="translate(-256.555 -109.101)" fill="#96f"/>
  </g>
</svg>
