<svg id="Group_135" data-name="Group 135" xmlns="http://www.w3.org/2000/svg" xmlns:xlink="http://www.w3.org/1999/xlink" width="43" height="38.132" viewBox="0 0 43 38.132">
  <defs>
    <clipPath id="clip-path">
      <rect id="Rectangle_1195" data-name="Rectangle 1195" width="43" height="38.132" fill="#36a2eb"/>
    </clipPath>
  </defs>
  <g id="Group_134" data-name="Group 134" clip-path="url(#clip-path)">
    <path id="Path_17" data-name="Path 17" d="M43,25.732c-.063.239-.118.48-.19.716a3.84,3.84,0,0,1-3.348,2.729c-.242.019-.485.026-.728.026q-8.967,0-17.934-.007a1.065,1.065,0,0,0-.843.367q-3.594,3.734-7.212,7.444a3.443,3.443,0,0,1-5.579-.69,3.989,3.989,0,0,1-.505-2.035q0-2.318,0-4.636v-.492H4.08A3.821,3.821,0,0,1,.229,26.5,4.458,4.458,0,0,1,.01,25.155Q-.01,14.588,0,4.02A3.9,3.9,0,0,1,3.179.069.65.65,0,0,0,3.321,0H39.76A.661.661,0,0,0,39.9.068a3.658,3.658,0,0,1,3.03,3.046A.7.7,0,0,0,43,3.258V25.732M21.551,2.819H4.066c-.915,0-1.337.393-1.337,1.274q-.005,10.482,0,20.964a1.117,1.117,0,0,0,1.249,1.279c1.282,0,2.563,0,3.845,0,1.094,0,1.607.534,1.608,1.667q0,3.028,0,6.055a3.361,3.361,0,0,0,.027.541.8.8,0,0,0,1.279.53,2.922,2.922,0,0,0,.324-.314c2.519-2.6,5.047-5.187,7.548-7.8a2.054,2.054,0,0,1,1.611-.685q9.37.02,18.74.008c1.025,0,1.392-.375,1.392-1.426q0-5.345,0-10.691,0-5.011,0-10.023c0-.977-.383-1.374-1.317-1.38H21.551" transform="translate(0.001)" fill="#36a2eb"/>
    <path id="Path_18" data-name="Path 18" d="M111.12,128.477a.506.506,0,0,0,.775.527c.522-.257,1.026-.556,1.553-.8a.664.664,0,0,1,.511,0c.511.25.991.567,1.506.8a.523.523,0,0,0,.793-.6c-.06-.537-.171-1.069-.274-1.6a.638.638,0,0,1,.2-.663c.41-.382.795-.793,1.176-1.207s.254-.86-.3-.968c-.5-.1-1.009-.178-1.517-.245a.636.636,0,0,1-.57-.429,12.073,12.073,0,0,0-.71-1.45.822.822,0,0,0-.533-.4c-.16-.008-.389.217-.491.4a15.517,15.517,0,0,0-.678,1.42.6.6,0,0,1-.535.414,13.669,13.669,0,0,0-1.6.254c-.187.042-.445.193-.488.349a.8.8,0,0,0,.18.619c.377.434.815.812,1.2,1.236a.634.634,0,0,1,.139.459c-.094.631-.224,1.257-.341,1.885m-5.933.642a.528.528,0,0,0,.566-.686c-.087-.535-.178-1.069-.287-1.6a.666.666,0,0,1,.206-.7,12.532,12.532,0,0,0,1.083-1.125c.142-.17.3-.475.244-.632a.889.889,0,0,0-.575-.41c-.509-.128-1.039-.166-1.552-.279a.7.7,0,0,1-.409-.308c-.282-.505-.507-1.045-.8-1.545a.516.516,0,0,0-.97.012,12.832,12.832,0,0,0-.7,1.457.628.628,0,0,1-.57.43c-.535.068-1.072.138-1.6.258a.706.706,0,0,0-.469.37.746.746,0,0,0,.184.577,13.876,13.876,0,0,0,1.129,1.136.655.655,0,0,1,.227.693,15.566,15.566,0,0,0-.27,1.559.534.534,0,0,0,.821.626,11.89,11.89,0,0,0,1.371-.711.6.6,0,0,1,.7,0c.437.274.9.511,1.35.756a2.4,2.4,0,0,0,.309.125m-15.147-.687c-.019.538.336.784.759.577.511-.249,1.017-.513,1.51-.8a.546.546,0,0,1,.63.015,13.99,13.99,0,0,0,1.427.78A.753.753,0,0,0,95,129a.729.729,0,0,0,.168-.58c-.063-.579-.2-1.149-.268-1.728a.661.661,0,0,1,.138-.464c.392-.44.831-.836,1.212-1.286a.81.81,0,0,0,.177-.621c-.041-.154-.3-.306-.481-.349-.525-.122-1.065-.17-1.591-.286a.689.689,0,0,1-.407-.31c-.277-.508-.5-1.051-.781-1.553a.52.52,0,0,0-1,0,14.992,14.992,0,0,0-.7,1.455.562.562,0,0,1-.506.391,14.843,14.843,0,0,0-1.636.261.715.715,0,0,0-.473.369.736.736,0,0,0,.173.578,11.9,11.9,0,0,0,1.1,1.109.718.718,0,0,1,.246.8c-.137.565-.225,1.143-.321,1.644" transform="translate(-81.641 -111.299)" fill="#36a2eb"/>
    <path id="Path_19" data-name="Path 19" d="M350.582,128.485c.117-.628.248-1.253.341-1.885a.634.634,0,0,0-.139-.458c-.389-.424-.826-.8-1.2-1.236a.8.8,0,0,1-.18-.619c.043-.155.3-.307.488-.349a13.69,13.69,0,0,1,1.6-.254.6.6,0,0,0,.535-.414,15.459,15.459,0,0,1,.678-1.42c.1-.18.331-.405.491-.4a.822.822,0,0,1,.533.4,12.086,12.086,0,0,1,.71,1.45.636.636,0,0,0,.57.429c.508.066,1.014.146,1.517.245.551.108.685.547.3.968s-.766.824-1.176,1.206a.638.638,0,0,0-.2.663c.1.531.215,1.063.274,1.6a.523.523,0,0,1-.793.6c-.515-.237-1-.554-1.506-.8a.663.663,0,0,0-.511,0c-.527.246-1.031.545-1.553.8a.506.506,0,0,1-.776-.527" transform="translate(-321.103 -111.307)" fill="#36a2eb"/>
    <path id="Path_20" data-name="Path 20" d="M224.583,129.724a2.4,2.4,0,0,1-.309-.125c-.453-.245-.913-.482-1.35-.756a.6.6,0,0,0-.7,0,11.876,11.876,0,0,1-1.371.711.534.534,0,0,1-.821-.626,15.543,15.543,0,0,1,.27-1.559.655.655,0,0,0-.227-.692,13.881,13.881,0,0,1-1.129-1.136.745.745,0,0,1-.184-.577.706.706,0,0,1,.469-.37c.525-.121,1.062-.19,1.6-.258a.628.628,0,0,0,.57-.43,12.8,12.8,0,0,1,.7-1.457.516.516,0,0,1,.97-.012c.29.5.515,1.04.8,1.545a.7.7,0,0,0,.409.308c.513.114,1.043.151,1.552.279a.889.889,0,0,1,.575.41c.06.157-.1.462-.244.632a12.523,12.523,0,0,1-1.083,1.125.666.666,0,0,0-.206.7c.109.53.2,1.065.287,1.6a.528.528,0,0,1-.566.687" transform="translate(-201.037 -111.904)" fill="#36a2eb"/>
    <path id="Path_21" data-name="Path 21" d="M90.041,128.431c.1-.5.184-1.078.321-1.644a.718.718,0,0,0-.246-.8,11.9,11.9,0,0,1-1.1-1.109.736.736,0,0,1-.173-.578.715.715,0,0,1,.473-.369,14.849,14.849,0,0,1,1.636-.261.562.562,0,0,0,.506-.391,14.994,14.994,0,0,1,.7-1.455.52.52,0,0,1,1,0c.286.5.5,1.045.781,1.553a.689.689,0,0,0,.407.31c.526.116,1.067.164,1.591.286.184.043.44.195.481.349a.81.81,0,0,1-.177.621c-.381.45-.82.846-1.212,1.286a.661.661,0,0,0-.138.464c.072.578.2,1.149.268,1.728A.729.729,0,0,1,95,129a.753.753,0,0,1-.63.007,13.99,13.99,0,0,1-1.427-.78.545.545,0,0,0-.63-.015c-.493.284-1,.547-1.51.8-.423.207-.778-.039-.759-.577" transform="translate(-81.641 -111.299)" fill="#36a2eb"/>
  </g>
</svg>
