<?xml version="1.0" encoding="UTF-8"?>
<svg id="Layer_1" data-name="Layer 1" xmlns="http://www.w3.org/2000/svg" xmlns:xlink="http://www.w3.org/1999/xlink" viewBox="0 0 774.73 212.68">
  <defs>
    <style>
      .cls-1 {
        fill: url(#linear-gradient);
      }

      .cls-2 {
        fill: #2f71d9;
      }

      .cls-3 {
        fill: url(#linear-gradient-3);
      }

      .cls-4 {
        fill: url(#linear-gradient-2);
      }
    </style>
    <linearGradient id="linear-gradient" x1="26.93" y1="20.34" x2="153.39" y2="146.8" gradientUnits="userSpaceOnUse">
      <stop offset="0" stop-color="#74cffa"/>
      <stop offset="1" stop-color="#2f71d9"/>
    </linearGradient>
    <linearGradient id="linear-gradient-2" x1=".17" y1="84.82" x2=".28" y2="84.94" xlink:href="#linear-gradient"/>
    <linearGradient id="linear-gradient-3" x1="117.11" y1="22.69" x2="170.2" y2="75.78" xlink:href="#linear-gradient"/>
  </defs>
  <g>
    <path class="cls-2" d="m329.39,119.79l21.52-113.75h32.83l-35.46,159.86h-33.16l-26.02-106.94-26.02,106.94h-33.16L194.45,6.04h32.83l21.63,113.53,26.35-113.53h27.89l26.24,113.75Z"/>
    <path class="cls-2" d="m463.89,76.86c-4.32-.59-8.12-.88-11.42-.88-12.01,0-19.87,4.06-23.61,12.19v77.74h-31.73V47.1h29.98l.88,14.16c6.37-10.91,15.19-16.36,26.46-16.36,3.51,0,6.81.48,9.88,1.43l-.44,30.52Z"/>
    <path class="cls-2" d="m478.94,16.36c0-4.76,1.59-8.67,4.78-11.75s7.52-4.61,13.01-4.61,9.74,1.54,12.96,4.61c3.22,3.07,4.83,6.99,4.83,11.75s-1.63,8.79-4.89,11.86c-3.26,3.07-7.56,4.61-12.9,4.61s-9.65-1.54-12.9-4.61c-3.26-3.07-4.89-7.03-4.89-11.86Zm33.71,149.54h-31.84V47.1h31.84v118.8Z"/>
    <path class="cls-2" d="m534.16,105.63c0-18.22,4.34-32.9,13.01-44.03,8.67-11.12,20.37-16.69,35.08-16.69,13.03,0,23.17,4.46,30.42,13.39l1.32-11.2h28.77v114.85c0,10.39-2.36,19.43-7.08,27.12-4.72,7.68-11.36,13.54-19.93,17.57-8.57,4.03-18.59,6.04-30.08,6.04-8.71,0-17.2-1.74-25.47-5.21-8.27-3.48-14.53-7.96-18.78-13.45l14.06-19.32c7.91,8.86,17.49,13.29,28.77,13.29,8.42,0,14.97-2.25,19.65-6.75,4.68-4.5,7.03-10.89,7.03-19.16v-6.37c-7.32,8.27-16.94,12.41-28.87,12.41-14.27,0-25.82-5.58-34.64-16.75-8.82-11.16-13.23-25.97-13.23-44.41v-1.32Zm31.73,2.36c0,10.78,2.16,19.23,6.48,25.35,4.32,6.12,10.25,9.18,17.79,9.18,9.66,0,16.58-3.63,20.75-10.89v-50.03c-4.24-7.26-11.09-10.89-20.53-10.89-7.61,0-13.6,3.12-17.95,9.35-4.36,6.23-6.54,15.54-6.54,27.93Z"/>
    <path class="cls-2" d="m662.19,105.41c0-11.79,2.27-22.29,6.81-31.51,4.54-9.22,11.07-16.36,19.6-21.41,8.53-5.05,18.43-7.57,29.7-7.57,16.03,0,29.11,4.9,39.25,14.71,10.14,9.81,15.79,23.13,16.96,39.97l.22,8.12c0,18.22-5.09,32.85-15.26,43.86-10.17,11.02-23.83,16.52-40.96,16.52s-30.8-5.49-41.01-16.47c-10.21-10.98-15.32-25.91-15.32-44.8v-1.43Zm31.73,2.25c0,11.29,2.12,19.92,6.37,25.9,4.24,5.97,10.32,8.96,18.22,8.96s13.69-2.95,18.01-8.85c4.32-5.9,6.48-15.34,6.48-28.32,0-11.07-2.16-19.65-6.48-25.73-4.32-6.08-10.39-9.13-18.22-9.13s-13.76,3.02-18.01,9.07c-4.25,6.05-6.37,15.41-6.37,28.09Z"/>
  </g>
  <g>
    <path class="cls-1" d="m137.42,4.39h0s-.56-.99-.56-.99H43.87L.35,84.66l-.24.45-.02.03,43.81,79.03h92.12l46.39-80.37L137.42,4.39Zm35.88,77.12l-23.15,5.45-9.8-63.62,32.96,58.17Zm-42.48,74.09l-64.05-16.51,76.25-41.58-12.19,58.09Zm-69.88-21.08l-.49-94.65,81.44,50.5-80.96,44.15Zm81.68-51.7l-77.17-47.85,66.29-22.77,10.88,70.62ZM116.6,10.2l-56.2,19.31-.95.33-.34-.8-8.05-18.83h65.55Zm-71.04,4.45l8.28,19.37L16,69.84,45.56,14.65Zm8.11,28.9l.45,88.16L9.64,85.23l44.02-41.68Zm-35.15,60.79l34.84,36.41-7.42,13.06-27.42-49.48Zm33.23,53.03l7.49-13.19,51.19,13.19h-58.67Zm88.68-14.44l9.93-47.31h0s.38-1.81.38-1.81l.44-.1,20.44-4.81-31.19,54.03Z"/>
    <path class="cls-4" d="m0,84.99l.11.12.24-.45-.35.33Z"/>
    <path class="cls-3" d="m137.22,3.12l-.82.28h.45l.56.99-.2-1.27Zm13.51,90.69l-.38,1.81.82-1.91-.44.1Z"/>
  </g>
</svg>